<svg width="462" height="489" viewBox="0 0 462 489" fill="none" xmlns="http://www.w3.org/2000/svg">
<path d="M46.1695 0.406006H416.098C441.746 0.406006 462 21.8512 462 48.292V439.991C462 467.148 441.746 488.594 416.098 488.594H46.1695C21.1879 488.594 0.943665 467.148 0.943665 439.991V436.418C0.943665 428.557 3.64095 421.413 9.04524 415.69C14.4495 409.968 21.1976 407.112 28.6224 407.828C144.056 409.261 256.792 412.833 372.902 417.122C389.782 417.122 410.703 393.538 410.703 369.954C410.703 346.369 390.449 322.773 373.579 323.49C254.771 327.062 140.005 341.362 28.6224 341.362C20.5208 341.362 14.4495 338.507 9.04524 332.785C3.64095 327.78 0.943665 320.634 0.943665 312.772V298.472C0.943665 289.894 3.64087 282.749 9.72191 277.027C15.7933 271.305 22.5511 268.448 30.6527 269.165C91.4051 274.887 209.545 284.172 245.993 285.605C262.873 285.605 283.794 267.732 283.794 244.147C283.794 220.562 263.54 202.689 246.67 203.406C199.413 204.839 90.0515 211.267 29.9759 214.84C21.8743 215.556 15.1262 212.701 9.72191 206.979C3.65054 201.256 0.943665 194.111 0.943665 186.249V171.243C0.943665 162.665 3.64095 156.236 9.04524 150.514C14.4495 144.792 21.1976 141.936 28.6224 141.936C144.056 143.369 256.792 161.948 372.902 165.52C389.782 166.237 410.703 142.653 410.703 119.058C410.703 95.4728 390.449 71.1713 373.579 71.8776C254.771 76.1667 140.005 77.5992 27.9458 76.1661C13.0961 76.1661 0.943665 66.155 0.943665 49.7153V48.282C0.943665 21.8514 21.1879 0.406006 46.1695 0.406006Z" fill="#111215"/>
</svg>
